<svg xmlns="http://www.w3.org/2000/svg" xmlns:xlink="http://www.w3.org/1999/xlink" width="19" height="25" viewBox="0 0 19 25">
  <defs>
    <clipPath id="clip-path">
      <rect id="Rectangle_17703" data-name="Rectangle 17703" width="19" height="25" fill="#fff"/>
    </clipPath>
  </defs>
  <g id="Group_53539" data-name="Group 53539" clip-path="url(#clip-path)">
    <path id="Path_72152" data-name="Path 72152" d="M18.626,6.823a1.5,1.5,0,0,0-.228-.4L12.943.456a1.508,1.508,0,0,0-.436-.319A1.325,1.325,0,0,0,11.888,0H1.478A1.52,1.52,0,0,0,0,1.556V23.379A1.575,1.575,0,0,0,1.478,25H17.3a1.549,1.549,0,0,0,1.445-1.621V7.487a1.609,1.609,0,0,0-.124-.664m-15.5.612c0-.1.117-.137.221-.137H7.956c.1,0,.182.039.182.137v.7a.2.2,0,0,1-.182.2H3.346a.243.243,0,0,1-.221-.2Zm0,8.333c0-.1.117-.137.221-.137H11.3c.1,0,.156.039.156.137v.7c0,.091-.046.2-.156.2H3.346a.243.243,0,0,1-.221-.2Zm10.417,4.87c0,.091-.046.2-.156.2H3.346a.243.243,0,0,1-.221-.2v-.7c0-.1.117-.137.221-.137H13.385c.1,0,.156.039.156.137ZM15.625,12.3c0,.091-.046.2-.156.2H3.346a.243.243,0,0,1-.221-.2v-.7c0-.1.117-.137.221-.137H15.469c.1,0,.156.039.156.137ZM12.572,7.363a.759.759,0,0,1-.723-.736v-4.3l4.635,5.033Z" fill="#fff"/>
  </g>
</svg>
