<svg xmlns="http://www.w3.org/2000/svg" xmlns:xlink="http://www.w3.org/1999/xlink" width="17.183" height="25.31" viewBox="0 0 17.183 25.31">
  <defs>
    <clipPath id="clip-path">
      <rect id="Rectangle_17696" data-name="Rectangle 17696" width="17.183" height="25.31" fill="#fff"/>
    </clipPath>
  </defs>
  <g id="Group_53515" data-name="Group 53515" transform="translate(0 0)">
    <g id="Group_53515-2" data-name="Group 53515" transform="translate(0 0)" clip-path="url(#clip-path)">
      <path id="Path_72151" data-name="Path 72151" d="M15.727,13.555c.041-.067.085-.139.145-.228.007-.011.014-.023.021-.035.108-.2.276-.5.284-.516a9.117,9.117,0,0,0,1.006-4.185c0-.158,0-.314-.01-.468,0-.068-.008-.134-.012-.2l-.009-.133c0-.043,0-.085-.009-.126s-.011-.11-.017-.164l-.013-.119c-.006-.056-.012-.113-.019-.17s-.013-.089-.021-.133l-.017-.114c-.01-.065-.019-.129-.031-.192s-.02-.1-.03-.153l-.027-.136c-.01-.048-.02-.095-.03-.141-.016-.068-.033-.134-.051-.2l-.029-.114c-.008-.035-.017-.07-.027-.106-.021-.073-.043-.144-.065-.216l-.027-.09c-.011-.035-.021-.071-.032-.1-.023-.071-.049-.141-.075-.21L16.6,5.211c-.012-.033-.023-.066-.035-.1-.03-.078-.062-.154-.095-.23L16.43,4.8c-.01-.024-.019-.048-.029-.071-.046-.1-.095-.2-.144-.3l-.034-.071c-.051-.1-.1-.2-.17-.313L16.027,4c-.059-.1-.122-.2-.193-.317l-.02-.031c-.065-.1-.134-.2-.208-.3l-.02-.029c-.075-.1-.152-.2-.228-.3,0,0-.014-.019-.018-.024-.082-.1-.168-.2-.26-.306S14.9,2.49,14.8,2.4l0,0A8.537,8.537,0,0,0,8.592,0,8.22,8.22,0,0,0,0,8.591a9.218,9.218,0,0,0,1.156,4.467l.129.237c0,.01.01.018.015.027l.216.332c.024.037.048.074.061.092l5.5,9.237h0l1.274,2.142a.381.381,0,0,0,.327.186h0A.379.379,0,0,0,9,25.121l1.242-2.138h0L15.6,13.757c.047-.07.086-.134.128-.2M13.405,8.688c0,.046-.012.09-.02.134l-.017.115c-.011.078-.022.156-.037.232-.012.058-.027.117-.044.175l-.031.124c-.014.055-.027.11-.044.163-.023.073-.049.143-.076.214l-.042.113c-.014.04-.027.08-.044.118-.037.088-.08.173-.123.259l-.037.077c-.014.029-.027.059-.043.087-.057.108-.123.212-.189.314-.024.041-.037.063-.051.084-.075.111-.156.219-.24.324l-.035.046c-.09.11-.189.22-.3.329A4.838,4.838,0,0,1,8.621,13.05l-.049,0a4.858,4.858,0,1,1,0-9.716l.05,0a4.824,4.824,0,0,1,3.4,1.437l.021.022c.109.111.2.217.289.32.012.014.022.028.031.042.088.11.17.218.245.33.013.019.026.041.039.063.079.124.144.227.2.335.016.029.029.059.043.088l.018.038c.057.112.1.2.141.3.017.039.032.08.046.121l.041.11c.027.07.054.141.076.213.017.053.03.109.044.164l.031.121c.017.059.032.119.045.179s.026.152.036.231l.017.115c.007.044.015.089.019.134.016.163.024.33.024.494s-.008.331-.024.494" transform="translate(0 0)" fill="#fff"/>
    </g>
  </g>
</svg>
