<svg xmlns="http://www.w3.org/2000/svg" width="21.215" height="15.094" viewBox="0 0 21.215 15.094"><defs><style>.a{fill:#16459E;}</style></defs><path class="a" d="M45.953,40.616H34.871a1.267,1.267,0,0,1,0-2.533H45.953a1.267,1.267,0,1,1,0,2.533Z" transform="translate(-26.004 -38.083)"/><path class="a" d="M53.553,50.616H34.871a1.267,1.267,0,1,1,0-2.533H53.553a1.267,1.267,0,1,1,0,2.533Z" transform="translate(-33.604 -41.75)"/><path class="a" d="M34.871,57.917H53.553a1.267,1.267,0,1,1,0,2.533H34.871a1.267,1.267,0,1,1,0-2.533Z" transform="translate(-33.604 -45.356)"/></svg>